<mxfile host="app.diagrams.net" agent="Mozilla/5.0 (Windows NT 10.0; Win64; x64) AppleWebKit/537.36 (KHTML, like Gecko) Chrome/139.0.0.0 Safari/537.36 Edg/139.0.0.0" version="28.1.2" pages="2">
  <diagram name="Página-1" id="luOvs5wHeiIS5oEdglYs">
    <mxGraphModel dx="1183" dy="661" grid="1" gridSize="10" guides="1" tooltips="1" connect="1" arrows="1" fold="1" page="1" pageScale="1" pageWidth="827" pageHeight="1169" math="0" shadow="0">
      <root>
        <mxCell id="0" />
        <mxCell id="1" parent="0" />
        <mxCell id="S8UaPHMbgqfOypVAKiAw-2" value="Langgraph + Langchain" style="rounded=1;whiteSpace=wrap;html=1;align=left;verticalAlign=top;spacingLeft=10;spacingTop=2;fontStyle=1" parent="1" vertex="1">
          <mxGeometry x="918" y="410.5" width="322" height="160" as="geometry" />
        </mxCell>
        <mxCell id="AZALhzgYjYcKtDTG_1R--1" value="Lago de datos" style="whiteSpace=wrap;html=1;aspect=fixed;verticalAlign=top;labelPosition=center;verticalLabelPosition=middle;align=left;fontSize=14;spacingTop=-4;spacingLeft=2;" parent="1" vertex="1">
          <mxGeometry x="330" y="374.5" width="230" height="230" as="geometry" />
        </mxCell>
        <mxCell id="AZALhzgYjYcKtDTG_1R--8" style="edgeStyle=orthogonalEdgeStyle;rounded=0;orthogonalLoop=1;jettySize=auto;html=1;entryX=1;entryY=0.5;entryDx=0;entryDy=0;startArrow=none;startFill=0;endArrow=classic;endFill=1;exitX=0;exitY=0.5;exitDx=0;exitDy=0;exitPerimeter=0;" parent="1" source="AZALhzgYjYcKtDTG_1R--9" target="AZALhzgYjYcKtDTG_1R--1" edge="1">
          <mxGeometry relative="1" as="geometry" />
        </mxCell>
        <mxCell id="AZALhzgYjYcKtDTG_1R--7" value="Athena" style="sketch=0;points=[[0,0,0],[0.25,0,0],[0.5,0,0],[0.75,0,0],[1,0,0],[0,1,0],[0.25,1,0],[0.5,1,0],[0.75,1,0],[1,1,0],[0,0.25,0],[0,0.5,0],[0,0.75,0],[1,0.25,0],[1,0.5,0],[1,0.75,0]];outlineConnect=0;fontColor=#232F3E;fillColor=#8C4FFF;strokeColor=#ffffff;dashed=0;verticalLabelPosition=bottom;verticalAlign=top;align=center;html=1;fontSize=12;fontStyle=0;aspect=fixed;shape=mxgraph.aws4.resourceIcon;resIcon=mxgraph.aws4.athena;" parent="1" vertex="1">
          <mxGeometry x="800" y="450.5" width="78" height="78" as="geometry" />
        </mxCell>
        <mxCell id="AZALhzgYjYcKtDTG_1R--9" value="Glue" style="sketch=0;points=[[0,0,0],[0.25,0,0],[0.5,0,0],[0.75,0,0],[1,0,0],[0,1,0],[0.25,1,0],[0.5,1,0],[0.75,1,0],[1,1,0],[0,0.25,0],[0,0.5,0],[0,0.75,0],[1,0.25,0],[1,0.5,0],[1,0.75,0]];outlineConnect=0;fontColor=#232F3E;fillColor=#8C4FFF;strokeColor=#ffffff;dashed=0;verticalLabelPosition=bottom;verticalAlign=top;align=center;html=1;fontSize=12;fontStyle=0;aspect=fixed;shape=mxgraph.aws4.resourceIcon;resIcon=mxgraph.aws4.glue;" parent="1" vertex="1">
          <mxGeometry x="640" y="450.5" width="78" height="78" as="geometry" />
        </mxCell>
        <mxCell id="AZALhzgYjYcKtDTG_1R--11" style="edgeStyle=orthogonalEdgeStyle;rounded=0;orthogonalLoop=1;jettySize=auto;html=1;entryX=1;entryY=0.5;entryDx=0;entryDy=0;entryPerimeter=0;" parent="1" source="AZALhzgYjYcKtDTG_1R--7" target="AZALhzgYjYcKtDTG_1R--9" edge="1">
          <mxGeometry relative="1" as="geometry" />
        </mxCell>
        <mxCell id="AZALhzgYjYcKtDTG_1R--13" value="Call function&lt;div&gt;&lt;b&gt;(Athena)&lt;/b&gt;&lt;/div&gt;" style="sketch=0;points=[[0,0,0],[0.25,0,0],[0.5,0,0],[0.75,0,0],[1,0,0],[0,1,0],[0.25,1,0],[0.5,1,0],[0.75,1,0],[1,1,0],[0,0.25,0],[0,0.5,0],[0,0.75,0],[1,0.25,0],[1,0.5,0],[1,0.75,0]];outlineConnect=0;fontColor=#232F3E;fillColor=#ED7100;strokeColor=#ffffff;dashed=0;verticalLabelPosition=bottom;verticalAlign=top;align=center;html=1;fontSize=12;fontStyle=0;aspect=fixed;shape=mxgraph.aws4.resourceIcon;resIcon=mxgraph.aws4.lambda;" parent="1" vertex="1">
          <mxGeometry x="960" y="450.5" width="78" height="78" as="geometry" />
        </mxCell>
        <mxCell id="AZALhzgYjYcKtDTG_1R--14" style="edgeStyle=orthogonalEdgeStyle;rounded=0;orthogonalLoop=1;jettySize=auto;html=1;entryX=1;entryY=0.5;entryDx=0;entryDy=0;entryPerimeter=0;startArrow=classic;startFill=1;" parent="1" source="AZALhzgYjYcKtDTG_1R--13" target="AZALhzgYjYcKtDTG_1R--7" edge="1">
          <mxGeometry relative="1" as="geometry" />
        </mxCell>
        <mxCell id="S8UaPHMbgqfOypVAKiAw-1" style="edgeStyle=orthogonalEdgeStyle;rounded=0;orthogonalLoop=1;jettySize=auto;html=1;" parent="1" source="AZALhzgYjYcKtDTG_1R--15" target="AZALhzgYjYcKtDTG_1R--13" edge="1">
          <mxGeometry relative="1" as="geometry" />
        </mxCell>
        <mxCell id="AZALhzgYjYcKtDTG_1R--15" value="LLM &lt;b&gt;(gpt-4o)&lt;/b&gt;" style="sketch=0;points=[[0,0,0],[0.25,0,0],[0.5,0,0],[0.75,0,0],[1,0,0],[0,1,0],[0.25,1,0],[0.5,1,0],[0.75,1,0],[1,1,0],[0,0.25,0],[0,0.5,0],[0,0.75,0],[1,0.25,0],[1,0.5,0],[1,0.75,0]];outlineConnect=0;fontColor=#232F3E;fillColor=#01A88D;strokeColor=#ffffff;dashed=0;verticalLabelPosition=bottom;verticalAlign=top;align=center;html=1;fontSize=12;fontStyle=0;aspect=fixed;shape=mxgraph.aws4.resourceIcon;resIcon=mxgraph.aws4.bedrock;" parent="1" vertex="1">
          <mxGeometry x="1120" y="450.5" width="78" height="78" as="geometry" />
        </mxCell>
        <mxCell id="S8UaPHMbgqfOypVAKiAw-4" style="edgeStyle=orthogonalEdgeStyle;rounded=0;orthogonalLoop=1;jettySize=auto;html=1;" parent="1" source="S8UaPHMbgqfOypVAKiAw-3" target="AZALhzgYjYcKtDTG_1R--15" edge="1">
          <mxGeometry relative="1" as="geometry" />
        </mxCell>
        <mxCell id="S8UaPHMbgqfOypVAKiAw-3" value="Template" style="outlineConnect=0;dashed=0;verticalLabelPosition=bottom;verticalAlign=top;align=center;html=1;shape=mxgraph.aws3.template;fillColor=#759C3E;gradientColor=none;labelBackgroundColor=default;" parent="1" vertex="1">
          <mxGeometry x="1131.25" y="310" width="55.5" height="64.5" as="geometry" />
        </mxCell>
        <mxCell id="AZALhzgYjYcKtDTG_1R--2" value="S3" style="sketch=0;points=[[0,0,0],[0.25,0,0],[0.5,0,0],[0.75,0,0],[1,0,0],[0,1,0],[0.25,1,0],[0.5,1,0],[0.75,1,0],[1,1,0],[0,0.25,0],[0,0.5,0],[0,0.75,0],[1,0.25,0],[1,0.5,0],[1,0.75,0]];outlineConnect=0;fontColor=#232F3E;fillColor=#7AA116;strokeColor=#ffffff;dashed=0;verticalLabelPosition=bottom;verticalAlign=top;align=center;html=1;fontSize=12;fontStyle=0;aspect=fixed;shape=mxgraph.aws4.resourceIcon;resIcon=mxgraph.aws4.s3;" parent="1" vertex="1">
          <mxGeometry x="448" y="446.5" width="78" height="78" as="geometry" />
        </mxCell>
        <mxCell id="AZALhzgYjYcKtDTG_1R--4" value="" style="shape=image;html=1;verticalAlign=top;verticalLabelPosition=bottom;labelBackgroundColor=#ffffff;imageAspect=0;aspect=fixed;image=https://cdn0.iconfinder.com/data/icons/phosphor-light-vol-2/256/file-csv-light-128.png" parent="1" vertex="1">
          <mxGeometry x="353" y="390.5" width="78" height="78" as="geometry" />
        </mxCell>
        <mxCell id="AZALhzgYjYcKtDTG_1R--5" value="" style="shape=image;html=1;verticalAlign=top;verticalLabelPosition=bottom;labelBackgroundColor=#ffffff;imageAspect=0;aspect=fixed;image=https://cdn0.iconfinder.com/data/icons/phosphor-light-vol-2/256/file-csv-light-128.png" parent="1" vertex="1">
          <mxGeometry x="353" y="460.5" width="78" height="78" as="geometry" />
        </mxCell>
        <mxCell id="AZALhzgYjYcKtDTG_1R--6" value="" style="shape=image;html=1;verticalAlign=top;verticalLabelPosition=bottom;labelBackgroundColor=#ffffff;imageAspect=0;aspect=fixed;image=https://cdn0.iconfinder.com/data/icons/phosphor-light-vol-2/256/file-csv-light-128.png" parent="1" vertex="1">
          <mxGeometry x="353" y="530.5" width="78" height="78" as="geometry" />
        </mxCell>
      </root>
    </mxGraphModel>
  </diagram>
  <diagram id="oOSA8BtloGllUqYYfK8z" name="data_ingestion_agent">
    <mxGraphModel dx="2010" dy="664" grid="1" gridSize="10" guides="1" tooltips="1" connect="1" arrows="1" fold="1" page="1" pageScale="1" pageWidth="827" pageHeight="1169" math="0" shadow="0">
      <root>
        <mxCell id="0" />
        <mxCell id="1" parent="0" />
        <mxCell id="mx0AjWewtUnHi781tuD6-1" value="&lt;div&gt;[User sube archivo]&amp;nbsp;&lt;/div&gt;&lt;div&gt;&amp;nbsp; &amp;nbsp; &amp;nbsp; &amp;nbsp; ↓&lt;/div&gt;&lt;div&gt;[Agente analiza archivo]&lt;/div&gt;&lt;div&gt;&amp;nbsp; &amp;nbsp; &amp;nbsp; &amp;nbsp; ↓&lt;/div&gt;&lt;div&gt;[Agente propone modelo semántico]&lt;/div&gt;&lt;div&gt;&amp;nbsp; &amp;nbsp; &amp;nbsp; &amp;nbsp; ↓&lt;/div&gt;&lt;div&gt;[Usuario valida o edita modelo]&lt;/div&gt;&lt;div&gt;&amp;nbsp; &amp;nbsp; &amp;nbsp; &amp;nbsp; ↓&lt;/div&gt;&lt;div&gt;[Agente ajusta modelo con feedback]&lt;/div&gt;&lt;div&gt;&amp;nbsp; &amp;nbsp; &amp;nbsp; &amp;nbsp; ↓&lt;/div&gt;&lt;div&gt;[Agente sube archivo a S3]&lt;/div&gt;&lt;div&gt;&amp;nbsp; &amp;nbsp; &amp;nbsp; &amp;nbsp; ↓&lt;/div&gt;&lt;div&gt;[Agente crea tabla en Glue + Athena]&lt;/div&gt;&lt;div&gt;&amp;nbsp; &amp;nbsp; &amp;nbsp; &amp;nbsp; ↓&lt;/div&gt;&lt;div&gt;✅ Listo para consultas SQL o LLMs&lt;/div&gt;&lt;div&gt;&lt;br&gt;&lt;/div&gt;" style="text;html=1;align=center;verticalAlign=middle;whiteSpace=wrap;rounded=0;" parent="1" vertex="1">
          <mxGeometry x="-800" y="30" width="250" height="280" as="geometry" />
        </mxCell>
        <mxCell id="fMEuA5_WB-Ir_5BxC4oA-1" value="Sube archivo" style="verticalLabelPosition=bottom;html=1;verticalAlign=top;align=center;strokeColor=#3A5431;fillColor=#6d8764;shape=mxgraph.azure.cloud_services_configuration_file;pointerEvents=1;fontColor=#000000;labelBackgroundColor=default;" parent="1" vertex="1">
          <mxGeometry x="-307.25" y="390" width="47.5" height="60" as="geometry" />
        </mxCell>
        <mxCell id="fMEuA5_WB-Ir_5BxC4oA-2" style="edgeStyle=orthogonalEdgeStyle;rounded=0;orthogonalLoop=1;jettySize=auto;html=1;curved=1;startArrow=classic;startFill=1;labelBackgroundColor=default;fillColor=#d5e8d4;strokeColor=#82b366;" parent="1" source="fMEuA5_WB-Ir_5BxC4oA-16" target="fMEuA5_WB-Ir_5BxC4oA-4" edge="1">
          <mxGeometry relative="1" as="geometry" />
        </mxCell>
        <mxCell id="CO-I_zU5IWeLc__GjT8n-1" value="Propone →&lt;div&gt;← Ajusta&lt;/div&gt;" style="edgeLabel;html=1;align=center;verticalAlign=middle;resizable=0;points=[];labelBackgroundColor=default;" parent="fMEuA5_WB-Ir_5BxC4oA-2" vertex="1" connectable="0">
          <mxGeometry x="0.0389" y="-3" relative="1" as="geometry">
            <mxPoint as="offset" />
          </mxGeometry>
        </mxCell>
        <mxCell id="fMEuA5_WB-Ir_5BxC4oA-3" style="edgeStyle=orthogonalEdgeStyle;rounded=0;orthogonalLoop=1;jettySize=auto;html=1;entryX=0;entryY=0.5;entryDx=0;entryDy=0;curved=1;startArrow=classic;startFill=1;endArrow=none;endFill=0;labelBackgroundColor=default;fillColor=#d5e8d4;strokeColor=#82b366;" parent="1" source="fMEuA5_WB-Ir_5BxC4oA-4" target="fMEuA5_WB-Ir_5BxC4oA-6" edge="1">
          <mxGeometry relative="1" as="geometry" />
        </mxCell>
        <mxCell id="fMEuA5_WB-Ir_5BxC4oA-4" value="Modelo semantico" style="sketch=0;outlineConnect=0;fontColor=#232F3E;gradientColor=none;fillColor=#E7157B;strokeColor=none;dashed=0;verticalLabelPosition=bottom;verticalAlign=top;align=center;html=1;fontSize=12;fontStyle=0;aspect=fixed;pointerEvents=1;shape=mxgraph.aws4.template;labelBackgroundColor=default;" parent="1" vertex="1">
          <mxGeometry x="-316" y="540" width="65" height="78" as="geometry" />
        </mxCell>
        <mxCell id="fMEuA5_WB-Ir_5BxC4oA-5" value="Usuario" style="verticalLabelPosition=bottom;html=1;verticalAlign=top;align=center;strokeColor=#23445d;fillColor=#bac8d3;shape=mxgraph.azure.user;labelBackgroundColor=default;" parent="1" vertex="1">
          <mxGeometry x="-150" y="470" width="47.5" height="50" as="geometry" />
        </mxCell>
        <mxCell id="fMEuA5_WB-Ir_5BxC4oA-6" value="&lt;span style=&quot;font-size: 11px;&quot;&gt;Valida&lt;/span&gt;" style="shape=image;html=1;verticalAlign=top;verticalLabelPosition=bottom;labelBackgroundColor=default;imageAspect=0;aspect=fixed;image=https://icons.diagrams.net/icon-cache1/Unicons_Line_vol_3-2965/edit-1273.svg" parent="1" vertex="1">
          <mxGeometry x="-180" y="564" width="30" height="30" as="geometry" />
        </mxCell>
        <mxCell id="fMEuA5_WB-Ir_5BxC4oA-7" value="S3" style="sketch=0;points=[[0,0,0],[0.25,0,0],[0.5,0,0],[0.75,0,0],[1,0,0],[0,1,0],[0.25,1,0],[0.5,1,0],[0.75,1,0],[1,1,0],[0,0.25,0],[0,0.5,0],[0,0.75,0],[1,0.25,0],[1,0.5,0],[1,0.75,0]];outlineConnect=0;fontColor=#232F3E;fillColor=#7AA116;strokeColor=#ffffff;dashed=0;verticalLabelPosition=bottom;verticalAlign=top;align=center;html=1;fontSize=12;fontStyle=0;aspect=fixed;shape=mxgraph.aws4.resourceIcon;resIcon=mxgraph.aws4.s3;labelBackgroundColor=default;" parent="1" vertex="1">
          <mxGeometry x="-520" y="670" width="78" height="78" as="geometry" />
        </mxCell>
        <mxCell id="fMEuA5_WB-Ir_5BxC4oA-8" value="Athena" style="sketch=0;points=[[0,0,0],[0.25,0,0],[0.5,0,0],[0.75,0,0],[1,0,0],[0,1,0],[0.25,1,0],[0.5,1,0],[0.75,1,0],[1,1,0],[0,0.25,0],[0,0.5,0],[0,0.75,0],[1,0.25,0],[1,0.5,0],[1,0.75,0]];outlineConnect=0;fontColor=#232F3E;fillColor=#8C4FFF;strokeColor=#ffffff;dashed=0;verticalLabelPosition=bottom;verticalAlign=top;align=center;html=1;fontSize=12;fontStyle=0;aspect=fixed;shape=mxgraph.aws4.resourceIcon;resIcon=mxgraph.aws4.athena;labelBackgroundColor=default;" parent="1" vertex="1">
          <mxGeometry x="-337.75" y="670" width="78" height="78" as="geometry" />
        </mxCell>
        <mxCell id="fMEuA5_WB-Ir_5BxC4oA-9" value="DynamoDB" style="sketch=0;points=[[0,0,0],[0.25,0,0],[0.5,0,0],[0.75,0,0],[1,0,0],[0,1,0],[0.25,1,0],[0.5,1,0],[0.75,1,0],[1,1,0],[0,0.25,0],[0,0.5,0],[0,0.75,0],[1,0.25,0],[1,0.5,0],[1,0.75,0]];outlineConnect=0;fillColor=light-dark(#4c71f2, #1d293b);strokeColor=#FFFFFF;dashed=0;verticalLabelPosition=bottom;verticalAlign=top;align=center;html=1;fontSize=10;fontStyle=0;aspect=fixed;shape=mxgraph.aws4.resourceIcon;resIcon=mxgraph.aws4.dynamodb;gradientColor=light-dark(#3332b7, #436697);gradientDirection=south;labelBackgroundColor=default;" parent="1" vertex="1">
          <mxGeometry x="-650" y="606" width="80" height="80" as="geometry" />
        </mxCell>
        <mxCell id="fMEuA5_WB-Ir_5BxC4oA-10" style="edgeStyle=orthogonalEdgeStyle;rounded=0;orthogonalLoop=1;jettySize=auto;html=1;entryX=1;entryY=0.5;entryDx=0;entryDy=0;entryPerimeter=0;curved=1;labelBackgroundColor=default;fillColor=#d5e8d4;strokeColor=#82b366;" parent="1" source="fMEuA5_WB-Ir_5BxC4oA-5" target="fMEuA5_WB-Ir_5BxC4oA-1" edge="1">
          <mxGeometry relative="1" as="geometry">
            <Array as="points">
              <mxPoint x="-126" y="420" />
            </Array>
          </mxGeometry>
        </mxCell>
        <mxCell id="fMEuA5_WB-Ir_5BxC4oA-11" style="edgeStyle=orthogonalEdgeStyle;rounded=0;orthogonalLoop=1;jettySize=auto;html=1;entryX=0.5;entryY=0;entryDx=0;entryDy=0;entryPerimeter=0;curved=1;labelBackgroundColor=default;fillColor=#d5e8d4;strokeColor=#82b366;" parent="1" source="fMEuA5_WB-Ir_5BxC4oA-1" target="fMEuA5_WB-Ir_5BxC4oA-16" edge="1">
          <mxGeometry relative="1" as="geometry" />
        </mxCell>
        <mxCell id="fMEuA5_WB-Ir_5BxC4oA-12" style="edgeStyle=orthogonalEdgeStyle;rounded=0;orthogonalLoop=1;jettySize=auto;html=1;entryX=0.5;entryY=0;entryDx=0;entryDy=0;entryPerimeter=0;curved=1;labelBackgroundColor=default;fillColor=#d5e8d4;strokeColor=#82b366;" parent="1" source="fMEuA5_WB-Ir_5BxC4oA-16" target="fMEuA5_WB-Ir_5BxC4oA-9" edge="1">
          <mxGeometry relative="1" as="geometry" />
        </mxCell>
        <mxCell id="CO-I_zU5IWeLc__GjT8n-2" value="Almacena&lt;div&gt;modelo semántico&lt;/div&gt;" style="edgeLabel;html=1;align=center;verticalAlign=middle;resizable=0;points=[];labelBackgroundColor=default;" parent="fMEuA5_WB-Ir_5BxC4oA-12" vertex="1" connectable="0">
          <mxGeometry x="0.4074" y="1" relative="1" as="geometry">
            <mxPoint as="offset" />
          </mxGeometry>
        </mxCell>
        <mxCell id="fMEuA5_WB-Ir_5BxC4oA-13" style="edgeStyle=orthogonalEdgeStyle;rounded=0;orthogonalLoop=1;jettySize=auto;html=1;entryX=0.5;entryY=0;entryDx=0;entryDy=0;entryPerimeter=0;curved=1;labelBackgroundColor=default;fillColor=#d5e8d4;strokeColor=#82b366;" parent="1" source="fMEuA5_WB-Ir_5BxC4oA-16" target="fMEuA5_WB-Ir_5BxC4oA-7" edge="1">
          <mxGeometry relative="1" as="geometry" />
        </mxCell>
        <mxCell id="CO-I_zU5IWeLc__GjT8n-3" value="Almacena&lt;div&gt;archivo&lt;/div&gt;" style="edgeLabel;html=1;align=center;verticalAlign=middle;resizable=0;points=[];labelBackgroundColor=default;" parent="fMEuA5_WB-Ir_5BxC4oA-13" vertex="1" connectable="0">
          <mxGeometry x="0.1397" y="-3" relative="1" as="geometry">
            <mxPoint y="8" as="offset" />
          </mxGeometry>
        </mxCell>
        <mxCell id="fMEuA5_WB-Ir_5BxC4oA-14" style="edgeStyle=orthogonalEdgeStyle;rounded=0;orthogonalLoop=1;jettySize=auto;html=1;entryX=0;entryY=0.5;entryDx=0;entryDy=0;entryPerimeter=0;curved=1;labelBackgroundColor=default;fillColor=#d5e8d4;strokeColor=#82b366;" parent="1" source="fMEuA5_WB-Ir_5BxC4oA-7" target="fMEuA5_WB-Ir_5BxC4oA-8" edge="1">
          <mxGeometry relative="1" as="geometry" />
        </mxCell>
        <mxCell id="CO-I_zU5IWeLc__GjT8n-4" value="Crea&amp;nbsp;&lt;div&gt;tabla&lt;/div&gt;" style="edgeLabel;html=1;align=center;verticalAlign=middle;resizable=0;points=[];labelBackgroundColor=default;" parent="fMEuA5_WB-Ir_5BxC4oA-14" vertex="1" connectable="0">
          <mxGeometry x="-0.2692" y="1" relative="1" as="geometry">
            <mxPoint x="14" y="1" as="offset" />
          </mxGeometry>
        </mxCell>
        <mxCell id="fMEuA5_WB-Ir_5BxC4oA-15" style="edgeStyle=orthogonalEdgeStyle;rounded=0;orthogonalLoop=1;jettySize=auto;html=1;entryX=0.5;entryY=1;entryDx=0;entryDy=0;entryPerimeter=0;curved=1;exitX=1;exitY=0.5;exitDx=0;exitDy=0;labelBackgroundColor=default;fillColor=#d5e8d4;strokeColor=#82b366;" parent="1" source="fMEuA5_WB-Ir_5BxC4oA-6" target="fMEuA5_WB-Ir_5BxC4oA-5" edge="1">
          <mxGeometry relative="1" as="geometry" />
        </mxCell>
        <mxCell id="fMEuA5_WB-Ir_5BxC4oA-16" value="Agente" style="sketch=0;points=[[0,0,0],[0.25,0,0],[0.5,0,0],[0.75,0,0],[1,0,0],[0,1,0],[0.25,1,0],[0.5,1,0],[0.75,1,0],[1,1,0],[0,0.25,0],[0,0.5,0],[0,0.75,0],[1,0.25,0],[1,0.5,0],[1,0.75,0]];outlineConnect=0;fontColor=#232F3E;fillColor=#01A88D;strokeColor=#ffffff;dashed=0;verticalLabelPosition=bottom;verticalAlign=top;align=center;html=1;fontSize=12;fontStyle=0;aspect=fixed;shape=mxgraph.aws4.resourceIcon;resIcon=mxgraph.aws4.augmented_ai;labelBackgroundColor=default;" parent="1" vertex="1">
          <mxGeometry x="-553" y="470" width="78" height="78" as="geometry" />
        </mxCell>
        <mxCell id="CO-I_zU5IWeLc__GjT8n-7" value="Usuario" style="verticalLabelPosition=bottom;html=1;verticalAlign=top;align=center;strokeColor=#23445d;fillColor=#bac8d3;shape=mxgraph.azure.user;labelBackgroundColor=default;" parent="1" vertex="1">
          <mxGeometry x="-259.75" y="1200" width="47.5" height="50" as="geometry" />
        </mxCell>
        <mxCell id="CO-I_zU5IWeLc__GjT8n-11" value="DynamoDB" style="sketch=0;points=[[0,0,0],[0.25,0,0],[0.5,0,0],[0.75,0,0],[1,0,0],[0,1,0],[0.25,1,0],[0.5,1,0],[0.75,1,0],[1,1,0],[0,0.25,0],[0,0.5,0],[0,0.75,0],[1,0.25,0],[1,0.5,0],[1,0.75,0]];outlineConnect=0;fillColor=light-dark(#4c71f2, #1d293b);strokeColor=#FFFFFF;dashed=0;verticalLabelPosition=bottom;verticalAlign=top;align=center;html=1;fontSize=10;fontStyle=0;aspect=fixed;shape=mxgraph.aws4.resourceIcon;resIcon=mxgraph.aws4.dynamodb;gradientColor=light-dark(#3332b7, #436697);gradientDirection=south;labelBackgroundColor=default;" parent="1" vertex="1">
          <mxGeometry x="-600" y="1590" width="80" height="80" as="geometry" />
        </mxCell>
        <mxCell id="CO-I_zU5IWeLc__GjT8n-13" style="edgeStyle=orthogonalEdgeStyle;rounded=0;orthogonalLoop=1;jettySize=auto;html=1;entryX=0.526;entryY=1.4;entryDx=0;entryDy=0;entryPerimeter=0;exitX=1;exitY=0.5;exitDx=0;exitDy=0;exitPerimeter=0;" parent="1" source="CO-I_zU5IWeLc__GjT8n-14" target="CO-I_zU5IWeLc__GjT8n-7" edge="1">
          <mxGeometry relative="1" as="geometry">
            <mxPoint x="-334.9999999999998" y="1558" as="sourcePoint" />
          </mxGeometry>
        </mxCell>
        <mxCell id="CO-I_zU5IWeLc__GjT8n-14" value="LLM model" style="sketch=0;points=[[0,0,0],[0.25,0,0],[0.5,0,0],[0.75,0,0],[1,0,0],[0,1,0],[0.25,1,0],[0.5,1,0],[0.75,1,0],[1,1,0],[0,0.25,0],[0,0.5,0],[0,0.75,0],[1,0.25,0],[1,0.5,0],[1,0.75,0]];outlineConnect=0;fontColor=#232F3E;fillColor=#01A88D;strokeColor=#ffffff;dashed=0;verticalLabelPosition=bottom;verticalAlign=top;align=center;html=1;fontSize=12;fontStyle=0;aspect=fixed;shape=mxgraph.aws4.resourceIcon;resIcon=mxgraph.aws4.bedrock;labelBackgroundColor=default;" parent="1" vertex="1">
          <mxGeometry x="-420" y="1590" width="78" height="78" as="geometry" />
        </mxCell>
        <mxCell id="CO-I_zU5IWeLc__GjT8n-16" style="edgeStyle=orthogonalEdgeStyle;rounded=0;orthogonalLoop=1;jettySize=auto;html=1;entryX=0.5;entryY=0;entryDx=0;entryDy=0;entryPerimeter=0;" parent="1" source="CO-I_zU5IWeLc__GjT8n-15" target="CO-I_zU5IWeLc__GjT8n-14" edge="1">
          <mxGeometry relative="1" as="geometry" />
        </mxCell>
        <mxCell id="CO-I_zU5IWeLc__GjT8n-17" style="edgeStyle=orthogonalEdgeStyle;rounded=0;orthogonalLoop=1;jettySize=auto;html=1;entryX=0.5;entryY=0;entryDx=0;entryDy=0;entryPerimeter=0;" parent="1" source="CO-I_zU5IWeLc__GjT8n-15" target="CO-I_zU5IWeLc__GjT8n-11" edge="1">
          <mxGeometry relative="1" as="geometry" />
        </mxCell>
        <mxCell id="CO-I_zU5IWeLc__GjT8n-15" value="LLM intent&lt;div&gt;&lt;br&gt;&lt;/div&gt;" style="sketch=0;points=[[0,0,0],[0.25,0,0],[0.5,0,0],[0.75,0,0],[1,0,0],[0,1,0],[0.25,1,0],[0.5,1,0],[0.75,1,0],[1,1,0],[0,0.25,0],[0,0.5,0],[0,0.75,0],[1,0.25,0],[1,0.5,0],[1,0.75,0]];outlineConnect=0;fontColor=#232F3E;fillColor=#01A88D;strokeColor=#ffffff;dashed=0;verticalLabelPosition=bottom;verticalAlign=top;align=center;html=1;fontSize=12;fontStyle=0;aspect=fixed;shape=mxgraph.aws4.resourceIcon;resIcon=mxgraph.aws4.bedrock;labelBackgroundColor=default;" parent="1" vertex="1">
          <mxGeometry x="-530" y="1430" width="78" height="78" as="geometry" />
        </mxCell>
        <mxCell id="CO-I_zU5IWeLc__GjT8n-19" value="Sube archivo" style="verticalLabelPosition=bottom;html=1;verticalAlign=top;align=center;strokeColor=#3A5431;fillColor=#6d8764;shape=mxgraph.azure.cloud_services_configuration_file;pointerEvents=1;fontColor=#000000;labelBackgroundColor=default;" parent="1" vertex="1">
          <mxGeometry x="-514.75" y="1270" width="47.5" height="60" as="geometry" />
        </mxCell>
        <mxCell id="CO-I_zU5IWeLc__GjT8n-20" style="rounded=0;orthogonalLoop=1;jettySize=auto;html=1;entryX=0.5;entryY=0;entryDx=0;entryDy=0;entryPerimeter=0;edgeStyle=orthogonalEdgeStyle;curved=1;" parent="1" source="CO-I_zU5IWeLc__GjT8n-7" target="CO-I_zU5IWeLc__GjT8n-19" edge="1">
          <mxGeometry relative="1" as="geometry" />
        </mxCell>
        <mxCell id="CO-I_zU5IWeLc__GjT8n-21" style="rounded=0;orthogonalLoop=1;jettySize=auto;html=1;entryX=0.5;entryY=0;entryDx=0;entryDy=0;entryPerimeter=0;edgeStyle=orthogonalEdgeStyle;curved=1;" parent="1" source="CO-I_zU5IWeLc__GjT8n-19" target="CO-I_zU5IWeLc__GjT8n-15" edge="1">
          <mxGeometry relative="1" as="geometry" />
        </mxCell>
        <mxCell id="CO-I_zU5IWeLc__GjT8n-22" value="" style="ellipse;whiteSpace=wrap;html=1;aspect=fixed;fillColor=none;strokeColor=#b85450;strokeWidth=5;" parent="1" vertex="1">
          <mxGeometry x="-546" y="1252" width="110" height="110" as="geometry" />
        </mxCell>
        <mxCell id="CO-I_zU5IWeLc__GjT8n-23" value="Bloquear" style="text;html=1;align=center;verticalAlign=middle;whiteSpace=wrap;rounded=0;fontSize=19;rotation=-30;fontColor=#990000;" parent="1" vertex="1">
          <mxGeometry x="-560" y="1230" width="60" height="30" as="geometry" />
        </mxCell>
        <mxCell id="CO-I_zU5IWeLc__GjT8n-24" style="edgeStyle=orthogonalEdgeStyle;rounded=0;orthogonalLoop=1;jettySize=auto;html=1;entryX=0.5;entryY=0;entryDx=0;entryDy=0;entryPerimeter=0;curved=1;" parent="1" source="CO-I_zU5IWeLc__GjT8n-7" target="CO-I_zU5IWeLc__GjT8n-15" edge="1">
          <mxGeometry relative="1" as="geometry">
            <Array as="points">
              <mxPoint x="-236" y="1260" />
              <mxPoint x="-420" y="1260" />
              <mxPoint x="-420" y="1430" />
            </Array>
          </mxGeometry>
        </mxCell>
        <mxCell id="CO-I_zU5IWeLc__GjT8n-25" value="Usuario" style="verticalLabelPosition=bottom;html=1;verticalAlign=top;align=center;strokeColor=#23445d;fillColor=#bac8d3;shape=mxgraph.azure.user;labelBackgroundColor=default;" parent="1" vertex="1">
          <mxGeometry x="-309.75" y="1868" width="47.5" height="50" as="geometry" />
        </mxCell>
        <mxCell id="CO-I_zU5IWeLc__GjT8n-26" value="DynamoDB" style="sketch=0;points=[[0,0,0],[0.25,0,0],[0.5,0,0],[0.75,0,0],[1,0,0],[0,1,0],[0.25,1,0],[0.5,1,0],[0.75,1,0],[1,1,0],[0,0.25,0],[0,0.5,0],[0,0.75,0],[1,0.25,0],[1,0.5,0],[1,0.75,0]];outlineConnect=0;fillColor=light-dark(#4c71f2, #1d293b);strokeColor=#FFFFFF;dashed=0;verticalLabelPosition=bottom;verticalAlign=top;align=center;html=1;fontSize=10;fontStyle=0;aspect=fixed;shape=mxgraph.aws4.resourceIcon;resIcon=mxgraph.aws4.dynamodb;gradientColor=light-dark(#3332b7, #436697);gradientDirection=south;labelBackgroundColor=default;" parent="1" vertex="1">
          <mxGeometry x="-760" y="2200" width="80" height="80" as="geometry" />
        </mxCell>
        <mxCell id="CO-I_zU5IWeLc__GjT8n-27" style="edgeStyle=orthogonalEdgeStyle;rounded=0;orthogonalLoop=1;jettySize=auto;html=1;entryX=0.526;entryY=1.4;entryDx=0;entryDy=0;entryPerimeter=0;exitX=1;exitY=0.5;exitDx=0;exitDy=0;exitPerimeter=0;curved=1;" parent="1" source="CO-I_zU5IWeLc__GjT8n-31" target="CO-I_zU5IWeLc__GjT8n-25" edge="1">
          <mxGeometry relative="1" as="geometry">
            <mxPoint x="-392.0000000000002" y="2297" as="sourcePoint" />
          </mxGeometry>
        </mxCell>
        <mxCell id="CO-I_zU5IWeLc__GjT8n-30" style="edgeStyle=orthogonalEdgeStyle;rounded=0;orthogonalLoop=1;jettySize=auto;html=1;entryX=0.5;entryY=0;entryDx=0;entryDy=0;entryPerimeter=0;curved=1;" parent="1" source="CO-I_zU5IWeLc__GjT8n-31" target="CO-I_zU5IWeLc__GjT8n-26" edge="1">
          <mxGeometry relative="1" as="geometry" />
        </mxCell>
        <mxCell id="CO-I_zU5IWeLc__GjT8n-31" value="LLM&amp;nbsp;&lt;span style=&quot;background-color: light-dark(#ffffff, var(--ge-dark-color, #121212)); color: light-dark(rgb(35, 47, 62), rgb(189, 199, 212));&quot;&gt;model&lt;/span&gt;&lt;div&gt;&lt;div&gt;&lt;br&gt;&lt;/div&gt;&lt;/div&gt;" style="sketch=0;points=[[0,0,0],[0.25,0,0],[0.5,0,0],[0.75,0,0],[1,0,0],[0,1,0],[0.25,1,0],[0.5,1,0],[0.75,1,0],[1,1,0],[0,0.25,0],[0,0.5,0],[0,0.75,0],[1,0.25,0],[1,0.5,0],[1,0.75,0]];outlineConnect=0;fontColor=#232F3E;fillColor=#01A88D;strokeColor=#ffffff;dashed=0;verticalLabelPosition=bottom;verticalAlign=top;align=center;html=1;fontSize=12;fontStyle=0;aspect=fixed;shape=mxgraph.aws4.resourceIcon;resIcon=mxgraph.aws4.bedrock;labelBackgroundColor=default;" parent="1" vertex="1">
          <mxGeometry x="-580" y="2098" width="78" height="78" as="geometry" />
        </mxCell>
        <mxCell id="CO-I_zU5IWeLc__GjT8n-32" value="Sube archivo" style="verticalLabelPosition=bottom;html=1;verticalAlign=top;align=center;strokeColor=#3A5431;fillColor=#6d8764;shape=mxgraph.azure.cloud_services_configuration_file;pointerEvents=1;fontColor=#000000;labelBackgroundColor=default;" parent="1" vertex="1">
          <mxGeometry x="-564.75" y="1938" width="47.5" height="60" as="geometry" />
        </mxCell>
        <mxCell id="CO-I_zU5IWeLc__GjT8n-33" style="rounded=0;orthogonalLoop=1;jettySize=auto;html=1;entryX=0.5;entryY=0;entryDx=0;entryDy=0;entryPerimeter=0;edgeStyle=orthogonalEdgeStyle;curved=1;" parent="1" source="CO-I_zU5IWeLc__GjT8n-25" target="CO-I_zU5IWeLc__GjT8n-32" edge="1">
          <mxGeometry relative="1" as="geometry" />
        </mxCell>
        <mxCell id="CO-I_zU5IWeLc__GjT8n-34" style="rounded=0;orthogonalLoop=1;jettySize=auto;html=1;entryX=0.5;entryY=0;entryDx=0;entryDy=0;entryPerimeter=0;edgeStyle=orthogonalEdgeStyle;curved=1;" parent="1" source="CO-I_zU5IWeLc__GjT8n-32" target="CO-I_zU5IWeLc__GjT8n-31" edge="1">
          <mxGeometry relative="1" as="geometry" />
        </mxCell>
        <mxCell id="CO-I_zU5IWeLc__GjT8n-35" value="" style="ellipse;whiteSpace=wrap;html=1;aspect=fixed;fillColor=none;strokeColor=#b85450;strokeWidth=5;" parent="1" vertex="1">
          <mxGeometry x="-596" y="1920" width="110" height="110" as="geometry" />
        </mxCell>
        <mxCell id="CO-I_zU5IWeLc__GjT8n-36" value="Bloquear" style="text;html=1;align=center;verticalAlign=middle;whiteSpace=wrap;rounded=0;fontSize=19;rotation=-30;fontColor=#990000;" parent="1" vertex="1">
          <mxGeometry x="-610" y="1898" width="60" height="30" as="geometry" />
        </mxCell>
        <mxCell id="CO-I_zU5IWeLc__GjT8n-37" style="edgeStyle=orthogonalEdgeStyle;rounded=0;orthogonalLoop=1;jettySize=auto;html=1;entryX=0.5;entryY=0;entryDx=0;entryDy=0;entryPerimeter=0;curved=1;" parent="1" source="CO-I_zU5IWeLc__GjT8n-25" target="CO-I_zU5IWeLc__GjT8n-31" edge="1">
          <mxGeometry relative="1" as="geometry">
            <Array as="points">
              <mxPoint x="-286" y="1928" />
              <mxPoint x="-470" y="1928" />
              <mxPoint x="-470" y="2098" />
            </Array>
          </mxGeometry>
        </mxCell>
      </root>
    </mxGraphModel>
  </diagram>
</mxfile>
